<svg xmlns="http://www.w3.org/2000/svg" viewBox="0 0 128 128">
<defs>
<filter id="neon" filterUnits="userSpaceOnUse" x="-16" y="-16" width="160" height="160"><feGaussianBlur stdDeviation="3" result="b"/><feMerge><feMergeNode in="b"/><feMergeNode in="b"/><feMergeNode in="SourceGraphic"/></feMerge></filter>
<filter id="shadow" x="-20%" y="-20%" width="140%" height="140%"><feDropShadow dx="0" dy="2" stdDeviation="2.5" flood-color="#000" flood-opacity="0.8"/></filter>
<clipPath id="plate"><path d="M16 4 H112 Q124 4 124 16 V112 Q124 124 112 124 H16 Q4 124 4 112 V16 Q4 4 16 4 Z"/></clipPath>
</defs>
<g clip-path="url(#plate)"><rect width="128" height="128" fill="#1b1c1f"/><path d="M16 0V128M0 16H128M32 0V128M0 32H128M48 0V128M0 48H128M64 0V128M0 64H128M80 0V128M0 80H128M96 0V128M0 96H128M112 0V128M0 112H128" stroke="#fff" stroke-opacity="0.045" stroke-width="1"/></g>
<path d="M16 4 H112 Q124 4 124 16 V112 Q124 124 112 124 H16 Q4 124 4 112 V16 Q4 4 16 4 Z" fill="none" stroke="#3a3b40" stroke-width="5" filter="url(#shadow)"/>
<path d="M16 4 H112 Q124 4 124 16 V112 Q124 124 112 124 H16 Q4 124 4 112 V16 Q4 4 16 4 Z" fill="none" stroke="#3ad6ff" stroke-width="2" filter="url(#neon)"/>
<g filter="url(#shadow)" fill="#35363b" stroke="#64656a" stroke-width="2" stroke-linejoin="round">
<path d="M14 70 L28 44 H100 L114 70 Z"/>
<rect x="14" y="70" width="100" height="26" rx="4"/>
<rect x="34" y="52" width="12" height="6" rx="1" fill="#131416" stroke="none"/><rect x="50" y="52" width="12" height="6" rx="1" fill="#131416" stroke="none"/><rect x="66" y="52" width="12" height="6" rx="1" fill="#131416" stroke="none"/><rect x="82" y="52" width="12" height="6" rx="1" fill="#131416" stroke="none"/>
<rect x="30" y="78" width="44" height="8" rx="2" fill="#3ad6ff" stroke="none" filter="url(#neon)"/>
<circle cx="94" cy="82" r="5" fill="#3ad6ff" stroke="none" filter="url(#neon)"/>
<path d="M114 84 Q122 96 110 108" fill="none" stroke="#64656a" stroke-width="4"/>
</g>
</svg>
