<svg xmlns="http://www.w3.org/2000/svg" viewBox="0 0 128 128">
<defs>
<filter id="neon" filterUnits="userSpaceOnUse" x="-16" y="-16" width="160" height="160"><feGaussianBlur stdDeviation="3" result="b"/><feMerge><feMergeNode in="b"/><feMergeNode in="b"/><feMergeNode in="SourceGraphic"/></feMerge></filter>
<filter id="shadow" x="-20%" y="-20%" width="140%" height="140%"><feDropShadow dx="0" dy="2" stdDeviation="2.5" flood-color="#000" flood-opacity="0.8"/></filter>
<clipPath id="plate"><path d="M16 4 H112 Q124 4 124 16 V112 Q124 124 112 124 H16 Q4 124 4 112 V16 Q4 4 16 4 Z"/></clipPath>
</defs>
<g clip-path="url(#plate)"><rect width="128" height="128" fill="#1b1c1f"/><path d="M16 0V128M0 16H128M32 0V128M0 32H128M48 0V128M0 48H128M64 0V128M0 64H128M80 0V128M0 80H128M96 0V128M0 96H128M112 0V128M0 112H128" stroke="#fff" stroke-opacity="0.045" stroke-width="1"/></g>
<path d="M16 4 H112 Q124 4 124 16 V112 Q124 124 112 124 H16 Q4 124 4 112 V16 Q4 4 16 4 Z" fill="none" stroke="#3a3b40" stroke-width="5" filter="url(#shadow)"/>
<path d="M16 4 H112 Q124 4 124 16 V112 Q124 124 112 124 H16 Q4 124 4 112 V16 Q4 4 16 4 Z" fill="none" stroke="#3ad6ff" stroke-width="2" filter="url(#neon)"/>
<g filter="url(#shadow)" fill="#35363b" stroke="#64656a" stroke-width="2" stroke-linejoin="round">
<path d="M44 58 V42 Q44 22 64 22 Q84 22 84 42 V58" fill="none" stroke="#64656a" stroke-width="10"/>
<path d="M44 58 V42 Q44 22 64 22 Q84 22 84 42 V58" fill="none" stroke="#35363b" stroke-width="5"/>
<rect x="30" y="56" width="68" height="52" rx="6"/>
<circle cx="64" cy="76" r="7" fill="#3ad6ff" stroke="none" filter="url(#neon)"/><rect x="61" y="80" width="6" height="16" rx="2" fill="#3ad6ff" stroke="none" filter="url(#neon)"/>
</g>
</svg>
