<svg xmlns="http://www.w3.org/2000/svg" viewBox="0 0 128 128">
<defs>
<filter id="neon" filterUnits="userSpaceOnUse" x="-16" y="-16" width="160" height="160"><feGaussianBlur stdDeviation="3" result="b"/><feMerge><feMergeNode in="b"/><feMergeNode in="b"/><feMergeNode in="SourceGraphic"/></feMerge></filter>
<filter id="shadow" x="-20%" y="-20%" width="140%" height="140%"><feDropShadow dx="0" dy="2" stdDeviation="2.5" flood-color="#000" flood-opacity="0.8"/></filter>
<clipPath id="plate"><path d="M26 4 H102 L124 26 V102 L102 124 H26 L4 102 V26 Z"/></clipPath>
</defs>
<g clip-path="url(#plate)"><rect width="128" height="128" fill="#1b1c1f"/><path d="M16 0V128M0 16H128M32 0V128M0 32H128M48 0V128M0 48H128M64 0V128M0 64H128M80 0V128M0 80H128M96 0V128M0 96H128M112 0V128M0 112H128" stroke="#fff" stroke-opacity="0.045" stroke-width="1"/></g>
<path d="M26 4 H102 L124 26 V102 L102 124 H26 L4 102 V26 Z" fill="none" stroke="#3a3b40" stroke-width="5" filter="url(#shadow)"/>
<path d="M26 4 H102 L124 26 V102 L102 124 H26 L4 102 V26 Z" fill="none" stroke="#ff3030" stroke-width="2" filter="url(#neon)"/>
<g filter="url(#shadow)" fill="#35363b" stroke="#64656a" stroke-width="2" stroke-linejoin="round">
<path d="M24 112 V48 Q24 18 64 18 Q104 18 104 48 V112 H84 V52 Q84 38 64 38 Q44 38 44 52 V112 Z"/>
<path d="M50 112 V56 Q50 44 64 44 Q78 44 78 56 V112" fill="none" stroke="#ff3030" stroke-width="3" stroke-linecap="round" filter="url(#neon)"/>
<rect x="56" y="70" width="16" height="8" rx="2" fill="#ff3030" stroke="none" filter="url(#neon)"/>
</g>
</svg>
