<svg xmlns="http://www.w3.org/2000/svg" viewBox="0 0 128 128">
<defs>
<filter id="neon" filterUnits="userSpaceOnUse" x="-16" y="-16" width="160" height="160"><feGaussianBlur stdDeviation="3" result="b"/><feMerge><feMergeNode in="b"/><feMergeNode in="b"/><feMergeNode in="SourceGraphic"/></feMerge></filter>
<filter id="shadow" x="-20%" y="-20%" width="140%" height="140%"><feDropShadow dx="0" dy="2" stdDeviation="2.5" flood-color="#000" flood-opacity="0.8"/></filter>
</defs>
<rect width="128" height="128" rx="6" fill="#1b1c1f"/>
<path d="M16 0V128M0 16H128M32 0V128M0 32H128M48 0V128M0 48H128M64 0V128M0 64H128M80 0V128M0 80H128M96 0V128M0 96H128M112 0V128M0 112H128" stroke="#fff" stroke-opacity="0.045" stroke-width="1"/>
<rect x="3" y="3" width="122" height="122" rx="4" fill="none" stroke="#3a3b40" stroke-width="6" filter="url(#shadow)"/>
<rect x="3" y="3" width="122" height="122" rx="4" fill="none" stroke="#4a4b50" stroke-width="2"/>
<path d="M40 3H88" stroke="#78f0ff" stroke-width="3" filter="url(#neon)"/>
<g filter="url(#shadow)" fill="#35363b" stroke="#64656a" stroke-width="2" stroke-linejoin="round">
<rect x="26" y="34" width="76" height="60" rx="6"/>
<rect x="38" y="46" width="52" height="36" rx="3" fill="#131416" stroke="none"/>
<path d="M46 56 H82 M46 64 H70 M46 72 H78" fill="none" stroke="#78f0ff" stroke-width="3" stroke-linecap="round" filter="url(#neon)"/>
<rect x="38" y="94" width="6" height="10"/><rect x="54" y="94" width="6" height="10"/><rect x="70" y="94" width="6" height="10"/><rect x="86" y="94" width="6" height="10"/>
</g>
</svg>
