<svg xmlns="http://www.w3.org/2000/svg" viewBox="0 0 128 128">
<defs>
<filter id="neon" filterUnits="userSpaceOnUse" x="-16" y="-16" width="160" height="160"><feGaussianBlur stdDeviation="3" result="b"/><feMerge><feMergeNode in="b"/><feMergeNode in="b"/><feMergeNode in="SourceGraphic"/></feMerge></filter>
<filter id="shadow" x="-20%" y="-20%" width="140%" height="140%"><feDropShadow dx="0" dy="2" stdDeviation="2.5" flood-color="#000" flood-opacity="0.8"/></filter>
</defs>
<rect width="128" height="128" rx="6" fill="#1b1c1f"/>
<path d="M16 0V128M0 16H128M32 0V128M0 32H128M48 0V128M0 48H128M64 0V128M0 64H128M80 0V128M0 80H128M96 0V128M0 96H128M112 0V128M0 112H128" stroke="#fff" stroke-opacity="0.045" stroke-width="1"/>
<rect x="3" y="3" width="122" height="122" rx="4" fill="none" stroke="#3a3b40" stroke-width="6" filter="url(#shadow)"/>
<rect x="3" y="3" width="122" height="122" rx="4" fill="none" stroke="#4a4b50" stroke-width="2"/>
<path d="M40 3H88" stroke="#ff5d6c" stroke-width="3" filter="url(#neon)"/>
<g filter="url(#shadow)" fill="#35363b" stroke="#64656a" stroke-width="2" stroke-linejoin="round">
<rect x="40" y="56" width="48" height="40" rx="8"/>
<rect x="40" y="38" width="12" height="30" rx="6"/><rect x="52" y="34" width="12" height="30" rx="6"/><rect x="64" y="34" width="12" height="30" rx="6"/><rect x="76" y="38" width="12" height="30" rx="6"/>
<path d="M42 78 L26 64 L34 56 L46 66 Z"/>
<rect x="40" y="94" width="48" height="12" rx="2"/><circle cx="46" cy="44" r="2.6" fill="#ff5d6c" stroke="none" filter="url(#neon)"/><circle cx="58" cy="40" r="2.6" fill="#ff5d6c" stroke="none" filter="url(#neon)"/><circle cx="70" cy="40" r="2.6" fill="#ff5d6c" stroke="none" filter="url(#neon)"/><circle cx="82" cy="44" r="2.6" fill="#ff5d6c" stroke="none" filter="url(#neon)"/>
<path d="M52 68 V82 M64 68 V82 M76 68 V82" stroke="#131416" stroke-width="1.5" fill="none" stroke-linecap="round"/><text x="64" y="118" text-anchor="middle" font-family="Bahnschrift, 'Segoe UI', Arial, sans-serif" font-size="12" fill="#9a9ba0" stroke="none" letter-spacing="0.5">unarmed</text>
</g>
</svg>
