<svg xmlns="http://www.w3.org/2000/svg" viewBox="0 0 128 128">
<defs>
<filter id="neon" filterUnits="userSpaceOnUse" x="-16" y="-16" width="160" height="160"><feGaussianBlur stdDeviation="3" result="b"/><feMerge><feMergeNode in="b"/><feMergeNode in="b"/><feMergeNode in="SourceGraphic"/></feMerge></filter>
<filter id="shadow" x="-20%" y="-20%" width="140%" height="140%"><feDropShadow dx="0" dy="2" stdDeviation="2.5" flood-color="#000" flood-opacity="0.8"/></filter>
</defs>
<rect width="128" height="128" rx="6" fill="#1b1c1f"/>
<path d="M16 0V128M0 16H128M32 0V128M0 32H128M48 0V128M0 48H128M64 0V128M0 64H128M80 0V128M0 80H128M96 0V128M0 96H128M112 0V128M0 112H128" stroke="#fff" stroke-opacity="0.045" stroke-width="1"/>
<rect x="3" y="3" width="122" height="122" rx="4" fill="none" stroke="#3a3b40" stroke-width="6" filter="url(#shadow)"/>
<rect x="3" y="3" width="122" height="122" rx="4" fill="none" stroke="#4a4b50" stroke-width="2"/>
<path d="M40 3H88" stroke="#ff962d" stroke-width="3" filter="url(#neon)"/>
<g filter="url(#shadow)" fill="#35363b" stroke="#64656a" stroke-width="2" stroke-linejoin="round">
<g transform="translate(64 60) scale(0.86) translate(-64 -60)"><path d="M38 112 L46 86 H82 L90 112 Z"/><ellipse cx="64" cy="86" rx="26" ry="6"/>
<rect x="26" y="52" width="70" height="20" rx="3"/><rect x="94" y="57" width="30" height="9" rx="1"/><rect x="118" y="54" width="6" height="15" rx="1"/>
<rect x="34" y="72" width="26" height="18" rx="2"/><rect x="40" y="44" width="30" height="8" rx="2"/>
<circle cx="102" cy="61.5" r="1.4" fill="#131416" stroke="none"/><circle cx="106" cy="61.5" r="1.4" fill="#131416" stroke="none"/><circle cx="110" cy="61.5" r="1.4" fill="#131416" stroke="none"/><circle cx="114" cy="61.5" r="1.4" fill="#131416" stroke="none"/><path d="M32 62 H82" stroke="#ff962d" stroke-width="2" fill="none" stroke-linecap="round" filter="url(#neon)"/></g><text x="64" y="118" text-anchor="middle" font-family="Bahnschrift, 'Segoe UI', Arial, sans-serif" font-size="12" fill="#9a9ba0" stroke="none" letter-spacing="0.5">mounted gun</text>
</g>
</svg>
